<svg xmlns="http://www.w3.org/2000/svg" width="800" height="400" viewBox="0 0 800 400">
<defs><style>
@keyframes draw{0%{stroke-dashoffset:4000}70%{stroke-dashoffset:0}100%{stroke-dashoffset:0}}
@keyframes fade{0%{opacity:0}100%{opacity:1}}
.p{fill:none;stroke:#2196F3;stroke-width:3;stroke-linecap:round;stroke-linejoin:round;stroke-dasharray:4000;stroke-dashoffset:4000;animation:draw 5s ease-out forwards}
.a{opacity:0;animation:fade .5s ease-out forwards}
.m{fill:#f44336;stroke:#fff;stroke-width:1.5;opacity:0;animation:fade .5s ease-out forwards}
.t{font-family:sans-serif;font-size:11px;font-weight:bold;fill:#333}
.s{font-family:sans-serif;font-size:10px;fill:#666}
</style></defs>
<rect width="800" height="400" fill="#f8f9fa"/>
<text x="400" y="24" text-anchor="middle" font-family="sans-serif" font-size="13" font-weight="bold" fill="#222">TCP CUBIC — S-Curve Congestion Window Evolution</text>
<g stroke="#e9ecef" stroke-dasharray="4,4">
<line x1="70" y1="40" x2="760" y2="40"/><line x1="70" y1="100" x2="760" y2="100"/><line x1="70" y1="160" x2="760" y2="160"/><line x1="70" y1="220" x2="760" y2="220"/><line x1="70" y1="280" x2="760" y2="280"/><line x1="70" y1="340" x2="760" y2="340"/>
<line x1="208" y1="40" x2="208" y2="340"/><line x1="346" y1="40" x2="346" y2="340"/><line x1="484" y1="40" x2="484" y2="340"/><line x1="622" y1="40" x2="622" y2="340"/><line x1="760" y1="40" x2="760" y2="340"/>
</g>
<line x1="70" y1="340" x2="760" y2="340" stroke="#444" stroke-width="1.5"/>
<line x1="70" y1="40" x2="70" y2="340" stroke="#444" stroke-width="1.5"/>
<g font-family="sans-serif" font-size="12" fill="#666" text-anchor="end">
<text x="62" y="44">100</text><text x="62" y="104">80</text><text x="62" y="164">60</text><text x="62" y="224">40</text><text x="62" y="284">20</text><text x="62" y="344">0</text>
</g>
<g font-family="sans-serif" font-size="12" fill="#666" text-anchor="middle">
<text x="70" y="365">0</text><text x="208" y="365">10</text><text x="346" y="365">20</text><text x="484" y="365">30</text><text x="622" y="365">40</text><text x="760" y="365">50</text>
</g>
<text x="400" y="385" text-anchor="middle" font-family="sans-serif" font-size="12" fill="#333">Time (RTTs)</text>
<text x="20" y="190" text-anchor="middle" font-family="sans-serif" font-size="12" fill="#333" transform="rotate(-90,20,190)">CWND (segments)</text>
<!-- Wmax reference lines -->
<line x1="115" y1="244" x2="145" y2="244" stroke="#FF9800" stroke-width="1" stroke-dasharray="4,3" opacity="0.4"/>
<text x="118" y="240" font-family="sans-serif" font-size="9" fill="#FF9800">Wmax=32</text>
<!-- CUBIC path: S-curve cycles (concave-plateau-convex) to fill chart -->
<path d="M70,337 L84,334 L98,328 L111,316 L125,292 L139,244 L139,274 L153,256 L167,247 L180,244 L194,241 L208,238 L222,238 L236,232 L249,220 L263,202 L277,178 L291,148 L304,112 L304,181 L318,154 L332,136 L346,124 L360,118 L374,112 L388,112 L401,109 L415,100 L429,88 L443,70 L456,52 L456,139 L484,106 L512,85 L539,70 L553,64 L567,58 L594,52 L622,46 L649,40 L649,130 L691,100 L732,70" class="p"/>
<!-- Loss markers at peaks -->
<circle cx="139" cy="244" r="4" class="m" style="animation-delay:2s"/>
<circle cx="304" cy="112" r="4" class="m" style="animation-delay:3.2s"/>
<circle cx="456" cy="52" r="4" class="m" style="animation-delay:4.2s"/>
<circle cx="649" cy="40" r="4" class="m" style="animation-delay:5.2s"/>
<!-- Annot 1: Concave Growth -->
<g class="a" style="animation-delay:2.5s">
<line x1="200" y1="105" x2="155" y2="260" stroke="#999" stroke-width="1" stroke-dasharray="3,2"/>
<text x="200" y="98" class="t">Concave Growth</text>
<text x="200" y="111" class="s">Fast recovery toward Wmax</text>
</g>
<!-- Annot 2: Plateau near Wmax -->
<g class="a" style="animation-delay:3s">
<line x1="440" y1="205" x2="215" y2="237" stroke="#999" stroke-width="1" stroke-dasharray="3,2"/>
<text x="445" y="200" class="t">Wmax Plateau</text>
<text x="445" y="213" class="s">Careful probing at peak</text>
</g>
<!-- Annot 3: Convex Probing -->
<g class="a" style="animation-delay:3.8s">
<line x1="570" y1="95" x2="440" y2="75" stroke="#999" stroke-width="1" stroke-dasharray="3,2"/>
<text x="575" y="90" class="t">Convex Probing</text>
<text x="575" y="103" class="s">Beyond Wmax: new bandwidth</text>
</g>
</svg>
