<svg xmlns="http://www.w3.org/2000/svg" width="800" height="400" viewBox="0 0 800 400">
<defs><style>
@keyframes draw{0%{stroke-dashoffset:4000}70%{stroke-dashoffset:0}100%{stroke-dashoffset:0}}
@keyframes fade{0%{opacity:0}100%{opacity:1}}
.p{fill:none;stroke:#2196F3;stroke-width:3;stroke-linecap:round;stroke-linejoin:round;stroke-dasharray:4000;stroke-dashoffset:4000;animation:draw 5s ease-out forwards}
.a{opacity:0;animation:fade .5s ease-out forwards}
.m{fill:#f44336;stroke:#fff;stroke-width:1.5;opacity:0;animation:fade .5s ease-out forwards}
.t{font-family:sans-serif;font-size:11px;font-weight:bold;fill:#333}
.s{font-family:sans-serif;font-size:10px;fill:#666}
</style></defs>
<rect width="800" height="400" fill="#f8f9fa"/>
<text x="400" y="24" text-anchor="middle" font-family="sans-serif" font-size="13" font-weight="bold" fill="#222">TCP Hybla — RTT-Normalized CWND Growth (GEO Satellite)</text>
<g stroke="#e9ecef" stroke-dasharray="4,4">
<line x1="70" y1="40" x2="760" y2="40"/><line x1="70" y1="100" x2="760" y2="100"/><line x1="70" y1="160" x2="760" y2="160"/><line x1="70" y1="220" x2="760" y2="220"/><line x1="70" y1="280" x2="760" y2="280"/><line x1="70" y1="340" x2="760" y2="340"/>
<line x1="208" y1="40" x2="208" y2="340"/><line x1="346" y1="40" x2="346" y2="340"/><line x1="484" y1="40" x2="484" y2="340"/><line x1="622" y1="40" x2="622" y2="340"/><line x1="760" y1="40" x2="760" y2="340"/>
</g>
<line x1="70" y1="340" x2="760" y2="340" stroke="#444" stroke-width="1.5"/>
<line x1="70" y1="40" x2="70" y2="340" stroke="#444" stroke-width="1.5"/>
<g font-family="sans-serif" font-size="12" fill="#666" text-anchor="end">
<text x="62" y="44">100</text><text x="62" y="104">80</text><text x="62" y="164">60</text><text x="62" y="224">40</text><text x="62" y="284">20</text><text x="62" y="344">0</text>
</g>
<g font-family="sans-serif" font-size="12" fill="#666" text-anchor="middle">
<text x="70" y="365">0</text><text x="208" y="365">10</text><text x="346" y="365">20</text><text x="484" y="365">30</text><text x="622" y="365">40</text><text x="760" y="365">50</text>
</g>
<text x="400" y="385" text-anchor="middle" font-family="sans-serif" font-size="12" fill="#333">Time (RTTs)</text>
<text x="20" y="190" text-anchor="middle" font-family="sans-serif" font-size="12" fill="#333" transform="rotate(-90,20,190)">CWND (segments)</text>
<!-- ssthresh -->
<line x1="100" y1="292" x2="135" y2="292" stroke="#FF9800" stroke-width="1" stroke-dasharray="4,3" opacity="0.5"/>
<text x="103" y="288" font-family="sans-serif" font-size="9" fill="#FF9800">ssthresh</text>
<!-- Reno comparison: gentle +1/RTT slope -->
<path d="M125,292 L139,289 L153,286 L167,283 L180,280 L194,277" fill="none" stroke="#4CAF50" stroke-width="1.5" stroke-dasharray="4,4" opacity="0.7"/>
<!-- Hybla CWND path: steep growth, multiple loss/recovery cycles to fill chart -->
<path d="M70,337 L84,334 L98,328 L111,316 L125,292 L139,274 L153,253 L167,232 L180,208 L194,184 L194,262 L222,226 L249,190 L277,154 L304,118 L304,229 L346,184 L388,139 L429,94 L429,217 L484,169 L539,121 L595,73 L595,205 L663,160 L732,115" class="p"/>
<!-- Loss markers at peaks -->
<circle cx="194" cy="184" r="4" class="m" style="animation-delay:2.5s"/>
<circle cx="304" cy="118" r="4" class="m" style="animation-delay:3.5s"/>
<circle cx="429" cy="94" r="4" class="m" style="animation-delay:4.5s"/>
<circle cx="595" cy="73" r="4" class="m" style="animation-delay:5.5s"/>
<!-- Annot 1: Slow Start -->
<g class="a" style="animation-delay:1s">
<line x1="95" y1="315" x2="110" y2="320" stroke="#999" stroke-width="1" stroke-dasharray="3,2"/>
<text x="90" y="308" class="t">Slow Start</text>
<text x="90" y="320" class="s">CWND &#215;2 / RTT</text>
</g>
<!-- Annot 2: Steep Hybla growth (vs Reno) -->
<g class="a" style="animation-delay:2.2s">
<line x1="480" y1="100" x2="175" y2="220" stroke="#999" stroke-width="1" stroke-dasharray="3,2"/>
<text x="485" y="95" class="t">Hybla: Steep Growth</text>
<text x="485" y="108" class="s">RTT-normalized: &#62;1 MSS/RTT</text>
</g>
<!-- Annot 3: Reno comparison -->
<g class="a" style="animation-delay:2s">
<text x="220" y="335" class="s" fill="#4CAF50">--- Reno: +1/RTT only (gentle slope)</text>
</g>
</svg>
