<svg xmlns="http://www.w3.org/2000/svg" width="800" height="400" viewBox="0 0 800 400">
<defs><style>
@keyframes draw{0%{stroke-dashoffset:4000}70%{stroke-dashoffset:0}100%{stroke-dashoffset:0}}
@keyframes fade{0%{opacity:0}100%{opacity:1}}
.p{fill:none;stroke:#2196F3;stroke-width:3;stroke-linecap:round;stroke-linejoin:round;stroke-dasharray:4000;stroke-dashoffset:4000;animation:draw 5s ease-out forwards}
.a{opacity:0;animation:fade .5s ease-out forwards}
.m{fill:#f44336;stroke:#fff;stroke-width:1.5;opacity:0;animation:fade .5s ease-out forwards}
.t{font-family:sans-serif;font-size:11px;font-weight:bold;fill:#333}
.s{font-family:sans-serif;font-size:10px;fill:#666}
</style></defs>
<rect width="800" height="400" fill="#f8f9fa"/>
<text x="400" y="24" text-anchor="middle" font-family="sans-serif" font-size="13" font-weight="bold" fill="#222">TCP BIC — Binary Increase Congestion Window Evolution</text>
<g stroke="#e9ecef" stroke-dasharray="4,4">
<line x1="70" y1="40" x2="760" y2="40"/><line x1="70" y1="100" x2="760" y2="100"/><line x1="70" y1="160" x2="760" y2="160"/><line x1="70" y1="220" x2="760" y2="220"/><line x1="70" y1="280" x2="760" y2="280"/><line x1="70" y1="340" x2="760" y2="340"/>
<line x1="208" y1="40" x2="208" y2="340"/><line x1="346" y1="40" x2="346" y2="340"/><line x1="484" y1="40" x2="484" y2="340"/><line x1="622" y1="40" x2="622" y2="340"/><line x1="760" y1="40" x2="760" y2="340"/>
</g>
<line x1="70" y1="340" x2="760" y2="340" stroke="#444" stroke-width="1.5"/>
<line x1="70" y1="40" x2="70" y2="340" stroke="#444" stroke-width="1.5"/>
<g font-family="sans-serif" font-size="12" fill="#666" text-anchor="end">
<text x="62" y="44">100</text><text x="62" y="104">80</text><text x="62" y="164">60</text><text x="62" y="224">40</text><text x="62" y="284">20</text><text x="62" y="344">0</text>
</g>
<g font-family="sans-serif" font-size="12" fill="#666" text-anchor="middle">
<text x="70" y="365">0</text><text x="208" y="365">10</text><text x="346" y="365">20</text><text x="484" y="365">30</text><text x="622" y="365">40</text><text x="760" y="365">50</text>
</g>
<text x="400" y="385" text-anchor="middle" font-family="sans-serif" font-size="12" fill="#333">Time (RTTs)</text>
<text x="20" y="190" text-anchor="middle" font-family="sans-serif" font-size="12" fill="#333" transform="rotate(-90,20,190)">CWND (segments)</text>
<!-- CWND path: slow start, binary search, max probing, multiple cycles to fill chart -->
<path d="M70,337 L84,334 L98,328 L111,316 L125,292 L125,316 L139,304 L153,298 L167,295 L180,292 L208,268 L236,238 L263,202 L291,160 L318,112 L346,76 L346,208 L360,142 L374,109 L388,91 L401,82 L415,76 L443,64 L470,52 L498,40 L498,190 L539,172 L580,154 L622,136 L663,118 L705,100 L732,88" class="p"/>
<!-- Loss markers at peaks -->
<circle cx="125" cy="292" r="4" class="m" style="animation-delay:2s"/>
<circle cx="346" cy="76" r="4" class="m" style="animation-delay:3.5s"/>
<circle cx="498" cy="40" r="4" class="m" style="animation-delay:4.5s"/>
<!-- Annot 1: Slow Start -->
<g class="a" style="animation-delay:1s">
<line x1="95" y1="315" x2="110" y2="320" stroke="#999" stroke-width="1" stroke-dasharray="3,2"/>
<text x="90" y="308" class="t">Slow Start</text>
<text x="90" y="320" class="s">Exponential growth</text>
</g>
<!-- Annot 2: Binary Search -->
<g class="a" style="animation-delay:2.5s">
<line x1="380" y1="285" x2="165" y2="298" stroke="#999" stroke-width="1" stroke-dasharray="3,2"/>
<text x="385" y="280" class="t">Binary Search</text>
<text x="385" y="293" class="s">(Wmin + Wmax) / 2</text>
</g>
<!-- Annot 3: Max Probing -->
<g class="a" style="animation-delay:3.8s">
<line x1="580" y1="270" x2="300" y2="130" stroke="#999" stroke-width="1" stroke-dasharray="3,2"/>
<text x="585" y="265" class="t">Max Probing</text>
<text x="585" y="278" class="s">Beyond Wmax: aggressive growth</text>
</g>
</svg>
